<svg width="47" height="48" viewBox="0 0 47 48" fill="none" xmlns="http://www.w3.org/2000/svg">
<g clip-path="url(#clip0_235_277)">
<path d="M35.25 16H37.2083C39.2859 16 41.2783 16.8429 42.7473 18.3431C44.2164 19.8434 45.0417 21.8783 45.0417 24C45.0417 26.1217 44.2164 28.1566 42.7473 29.6569C41.2783 31.1571 39.2859 32 37.2083 32H35.25M35.25 16H3.91666V34C3.91666 36.1217 4.74195 38.1566 6.21099 39.6569C7.68002 41.1571 9.67246 42 11.75 42H27.4167C29.4942 42 31.4866 41.1571 32.9557 39.6569C34.4247 38.1566 35.25 36.1217 35.25 34V16ZM11.75 2V8M19.5833 2V8M27.4167 2V8" stroke="#686D57" stroke-width="4" stroke-linecap="round" stroke-linejoin="round"/>
</g>
<defs>
<clipPath id="clip0_235_277">
<rect width="47" height="48" fill="white"/>
</clipPath>
</defs>
</svg>
