<svg width="47" height="48" viewBox="0 0 47 48" fill="none" xmlns="http://www.w3.org/2000/svg">
<path d="M27.4166 4H11.75C10.7112 4 9.715 4.42143 8.98048 5.17157C8.24596 5.92172 7.83331 6.93913 7.83331 8V40C7.83331 41.0609 8.24596 42.0783 8.98048 42.8284C9.715 43.5786 10.7112 44 11.75 44H35.25C36.2887 44 37.285 43.5786 38.0195 42.8284C38.754 42.0783 39.1666 41.0609 39.1666 40V16M27.4166 4L39.1666 16M27.4166 4V16H39.1666M31.3333 26H15.6666M31.3333 34H15.6666M19.5833 18H15.6666" stroke="#686D57" stroke-width="4" stroke-linecap="round" stroke-linejoin="round"/>
</svg>
