<svg width="44" height="40" viewBox="0 0 44 40" fill="none" xmlns="http://www.w3.org/2000/svg">
<path d="M29.6667 38V6C29.6667 4.93913 29.2628 3.92172 28.5439 3.17157C27.825 2.42143 26.85 2 25.8333 2H18.1667C17.15 2 16.175 2.42143 15.4561 3.17157C14.7372 3.92172 14.3333 4.93913 14.3333 6V38M6.66668 10H37.3333C39.4504 10 41.1667 11.7909 41.1667 14V34C41.1667 36.2091 39.4504 38 37.3333 38H6.66668C4.54959 38 2.83334 36.2091 2.83334 34V14C2.83334 11.7909 4.54959 10 6.66668 10Z" stroke="#686D57" stroke-width="4" stroke-linecap="round" stroke-linejoin="round"/>
</svg>
