<svg width="50" height="54" viewBox="0 0 50 54" fill="none" xmlns="http://www.w3.org/2000/svg">
<path d="M46.0145 27C46.0145 35.4847 46.0145 39.7282 43.5728 42.363C41.1312 44.9977 37.2041 45 29.3478 45H21.0145C13.1583 45 9.22909 45 6.78951 42.363C4.34992 39.726 4.34784 35.4847 4.34784 27C4.34784 18.5152 4.34784 14.2717 6.78951 11.637C9.23117 9.00225 13.1583 9 21.0145 9H29.3478C37.2041 9 41.1333 9 43.5728 11.637C44.9353 13.1062 45.5374 15.075 45.802 18" stroke="#686D57" stroke-width="3.5" stroke-linecap="round"/>
<path d="M37.6812 18L33.1833 22.05C29.3583 25.4925 27.4437 27.2138 25.1812 27.2138C23.827 27.2138 22.5999 26.5973 21.0145 25.3687M12.6812 18L14.5562 19.6875L16.4312 21.375" stroke="#686D57" stroke-width="3.5" stroke-linecap="round"/>
</svg>
